<?xml version="1.0" encoding="UTF-8"?>
<svg id="Layer_1" data-name="Layer 1" xmlns="http://www.w3.org/2000/svg" xmlns:xlink="http://www.w3.org/1999/xlink" viewBox="0 0 200 1000">
  <defs>
    <style>
      .cls-1, .cls-2 {
        font-family: OldEnglishTextMT, 'Old English Text MT';
        font-size: 21px;
      }

      .cls-2 {
        fill: #fff;
      }

      .cls-3 {
        fill: url(#linear-gradient);
      }
    </style>
    <linearGradient id="linear-gradient" x1="103.05" y1="997.89" x2="96.93" y2="-.91" gradientUnits="userSpaceOnUse">
      <stop offset="0" stop-color="#ff931e"/>
      <stop offset=".17" stop-color="#fb8d1e"/>
      <stop offset=".38" stop-color="#f17c21"/>
      <stop offset=".62" stop-color="#e16025"/>
      <stop offset=".89" stop-color="#cb392a"/>
      <stop offset="1" stop-color="#c1272d"/>
    </linearGradient>
  </defs>
  <rect class="cls-3" width="200" height="1000"/>
  <text class="cls-2" transform="translate(18.6 23.66)"><tspan x="0" y="0">The Minium Mail</tspan></text>
  <text class="cls-1" transform="translate(19.35 50.28)"><tspan x="0" y="0">Lorem ipsum dolor</tspan><tspan x="-3.61" y="25.2">sit amet, consectetur</tspan><tspan x="-.63" y="50.4">adipiscing elit. Sed</tspan><tspan x="-6.31" y="75.6">pretium sem sit amet</tspan><tspan x="18.11" y="100.8">felis cursus, ut</tspan><tspan x="7.19" y="126">pellentesque enim</tspan><tspan x=".8" y="151.2">sodales. Phasellus</tspan><tspan x="8.75" y="176.4">sagittis, tortor ut</tspan><tspan x="-3.94" y="201.6">elementum faucibus,</tspan><tspan x="-2.07" y="226.8">metus purus cursus</tspan><tspan x="10.59" y="252">quam, et efficitur</tspan><tspan x="14" y="277.2">neque lorem sed</tspan><tspan x="1.12" y="302.4">ligula. Maecenas a</tspan><tspan x="-.04" y="327.6">gravida nulla, vitae</tspan><tspan x="20.32" y="352.8">ultrices lorem.</tspan><tspan x="8.22" y="378">Morbi enim sem,</tspan><tspan x="13.83" y="403.2">posuere placerat</tspan><tspan x="-1.35" y="428.4">lorem quis, posuere</tspan><tspan x="26.27" y="453.6">facilisis nisi.</tspan><tspan x="-3.73" y="478.8">Pellentesque ac nisl</tspan><tspan x="22.44" y="504">sit amet quam</tspan><tspan x="-9.2" y="529.2">accumsan elementum.</tspan><tspan x="-7.73" y="554.4">Nunc rhoncus, quam</tspan><tspan x="10.03" y="579.6">a tincidunt porta,</tspan><tspan x="5.89" y="604.8">lacus orci rhoncus</tspan><tspan x="15.81" y="630">urna, non porta</tspan><tspan x="-9.9" y="655.2">ligula arcu nec ligula.</tspan><tspan x="-16.68" y="680.4">Ut dictum felis eget dui</tspan><tspan x="-3.95" y="705.6">molestie, elementum</tspan><tspan x="-10.87" y="730.8">consectetur ex cursus.</tspan><tspan x="-13.26" y="756">Integer posuere, justo</tspan><tspan x="14.39" y="781.2">facilisis egestas</tspan><tspan x="-9.57" y="806.4">bibendum, felis ligula</tspan><tspan x="-1.79" y="831.6">ullamcorper dui, vel</tspan><tspan x="-1.24" y="856.8">bibendum nulla orci</tspan><tspan x="12.66" y="882">maximus lorem.</tspan></text>
</svg>